<svg xmlns="http://www.w3.org/2000/svg" xmlns:xlink="http://www.w3.org/1999/xlink" width="28" height="15" viewBox="0 0 28 15"><defs><path id="a" d="M808.386 937.318l-2.793 2.776a1.955 1.955 0 0 0 0 2.777l2.793 2.776a1.983 1.983 0 0 0 2.793 0l2.793-2.776a1.955 1.955 0 0 0 0-2.777l-2.793-2.776a1.983 1.983 0 0 0-2.793 0z"/><path id="b" d="M816.249 935.93l-4.19 4.164a1.955 1.955 0 0 0 0 2.777l4.19 4.164a1.984 1.984 0 0 0 2.793 0l4.19-4.164a1.955 1.955 0 0 0 0-2.777l-4.19-4.164a1.984 1.984 0 0 0-2.793 0z"/><path id="c" d="M824.073 934.542l-5.586 5.552a1.955 1.955 0 0 0 0 2.777l5.586 5.553a1.983 1.983 0 0 0 2.793 0l5.587-5.553a1.955 1.955 0 0 0 0-2.777l-5.587-5.552a1.984 1.984 0 0 0-2.793 0z"/></defs><use fill="#00a99d" xlink:href="#a" opacity=".4" transform="translate(-805 -934)"/><use fill="#00a99d" xlink:href="#b" opacity=".7" transform="translate(-805 -934)"/><use fill="#00a99d" xlink:href="#c" transform="translate(-805 -934)"/></svg>