<svg xmlns="http://www.w3.org/2000/svg" xmlns:xlink="http://www.w3.org/1999/xlink" width="28" height="15" viewBox="0 0 28 15"><defs><path id="a" d="M1110.644 937.342l2.793 2.77a1.949 1.949 0 0 1 0 2.771l-2.793 2.771a1.986 1.986 0 0 1-2.793 0l-2.793-2.77a1.949 1.949 0 0 1 0-2.772l2.793-2.77a1.986 1.986 0 0 1 2.793 0z"/><path id="b" d="M1102.782 935.957l4.19 4.155a1.949 1.949 0 0 1 0 2.771l-4.19 4.156a1.986 1.986 0 0 1-2.793 0l-4.19-4.156a1.949 1.949 0 0 1 0-2.77l4.19-4.156a1.987 1.987 0 0 1 2.793 0z"/><path id="c" d="M1094.957 934.572l5.586 5.54a1.949 1.949 0 0 1 0 2.771l-5.586 5.542a1.986 1.986 0 0 1-2.793 0l-5.586-5.542a1.949 1.949 0 0 1 0-2.77l5.586-5.541a1.987 1.987 0 0 1 2.793 0z"/></defs><use fill="#00a99d" xlink:href="#a" opacity=".4" transform="translate(-1086 -934)"/><use fill="#00a99d" xlink:href="#b" opacity=".7" transform="translate(-1086 -934)"/><use fill="#00a99d" xlink:href="#c" transform="translate(-1086 -934)"/></svg>