<svg xmlns="http://www.w3.org/2000/svg" xmlns:xlink="http://www.w3.org/1999/xlink" width="28" height="15" viewBox="0 0 28 15"><defs><path id="a" d="M853.644 406.343l2.793 2.77a1.948 1.948 0 0 1 0 2.771l-2.793 2.77a1.987 1.987 0 0 1-2.793 0l-2.793-2.77a1.949 1.949 0 0 1 0-2.771l2.793-2.77a1.985 1.985 0 0 1 2.793 0z"/><path id="b" d="M845.782 404.957l4.19 4.156a1.948 1.948 0 0 1 0 2.771l-4.19 4.156a1.986 1.986 0 0 1-2.793 0l-4.19-4.156a1.949 1.949 0 0 1 0-2.771l4.19-4.156a1.987 1.987 0 0 1 2.793 0z"/><path id="c" d="M837.957 403.572l5.586 5.54a1.949 1.949 0 0 1 0 2.772l-5.586 5.541a1.986 1.986 0 0 1-2.793 0l-5.586-5.541a1.948 1.948 0 0 1 0-2.771l5.586-5.541a1.987 1.987 0 0 1 2.793 0z"/></defs><use fill="#00a99d" xlink:href="#a" opacity=".4" transform="translate(-829 -403)"/><use fill="#00a99d" xlink:href="#b" opacity=".7" transform="translate(-829 -403)"/><use fill="#00a99d" xlink:href="#c" transform="translate(-829 -403)"/></svg>