<svg xmlns="http://www.w3.org/2000/svg" viewBox="0 0 508.52 508.52"><path d="M476.737 31.782H31.782C14.239 31.782 0 46.021 0 63.565v286.042c0 17.544 14.239 31.782 31.782 31.782h158.881c-.064 22.979-.985 52.822-9.694 63.565h-6.42c-8.645 0-15.637 7.151-15.637 15.891s6.992 15.891 15.637 15.891h159.389c8.645 0 15.669-7.151 15.669-15.891s-7.024-15.891-15.637-15.891h-6.388c-8.708-10.742-9.662-40.586-9.725-63.565h158.881c17.544 0 31.782-14.239 31.782-31.782V63.565c0-17.544-14.239-31.783-31.783-31.783zm0 286.043H31.782V63.565h444.955v254.26z" fill="#090509"/></svg>